<?xml version="1.0" standalone="no"?>
<!DOCTYPE svg PUBLIC "-//W3C//DTD SVG 20010904//EN"
 "http://www.w3.org/TR/2001/REC-SVG-20010904/DTD/svg10.dtd">
<svg version="1.0" xmlns="http://www.w3.org/2000/svg"
 width="370.000000pt" height="360.000000pt" viewBox="0 0 370.000000 360.000000"
 preserveAspectRatio="xMidYMid meet">

<g transform="translate(0.000000,360.000000) scale(0.100000,-0.100000)"
fill="#000000" stroke="none">
<path d="M1564 3315 c-301 -63 -515 -176 -725 -385 -261 -260 -390 -548 -405
-905 -29 -687 467 -1294 1151 -1410 147 -25 326 -21 509 10 82 14 150 26 151
27 2 3 -62 385 -68 401 -1 5 -15 -9 -30 -31 -62 -95 -132 -152 -204 -167 l-33
-7 0 275 0 275 88 7 c122 11 119 8 109 83 l-9 62 -94 0 -94 0 0 300 0 300 68
1 c37 0 76 2 87 4 11 1 84 6 163 9 l142 7 0 -138 c0 -118 3 -142 19 -166 18
-27 106 -97 122 -97 4 0 7 90 6 201 -1 110 0 204 3 208 3 4 88 28 190 54 102
26 194 50 206 53 20 5 22 0 33 -98 21 -189 25 -311 11 -352 -25 -77 -94 -131
-220 -171 -30 -10 -59 -21 -63 -25 -13 -11 82 -89 117 -95 17 -4 44 -2 59 4
37 14 44 14 29 -1 -21 -21 -14 -77 11 -98 98 -83 162 -129 168 -123 17 17 70
135 94 209 93 285 93 592 0 867 -110 321 -339 594 -645 764 -94 53 -234 103
-387 138 -136 32 -160 35 -298 34 -114 -1 -177 -7 -261 -24z m173 -1021 c-3
-3 -420 18 -425 21 -2 1 6 48 18 103 61 303 223 582 375 647 l30 13 3 -390 c1
-215 1 -392 -1 -394z m244 748 c156 -100 330 -427 355 -667 l7 -65 -54 0 c-30
-1 -79 -3 -109 -5 -30 -2 -103 -7 -162 -10 l-108 -5 0 390 c0 314 3 390 13
390 7 0 33 -13 58 -28z m377 -87 c190 -91 348 -241 466 -444 20 -35 35 -68 33
-74 -3 -9 -325 -107 -352 -107 -6 0 -21 51 -33 113 -39 191 -142 464 -200 530
-24 27 3 22 86 -18z m-1007 -27 c-11 -29 -60 -165 -111 -303 -51 -137 -94
-257 -97 -267 -5 -17 -2 -17 -305 63 l-38 10 19 48 c41 108 187 282 321 381
57 42 201 120 222 120 4 0 -1 -24 -11 -52z m-248 -729 l37 -10 0 -285 0 -284
-22 4 c-165 36 -248 67 -343 127 -40 25 -67 50 -75 70 -13 29 -10 196 6 400
l6 76 177 -44 c97 -24 193 -48 214 -54z m515 -45 l122 -7 0 -304 c0 -166 -2
-303 -3 -303 -18 0 -377 41 -394 45 -12 3 -27 13 -32 23 -5 10 -15 113 -21
228 -6 115 -13 238 -16 273 l-5 64 113 -6 c62 -4 168 -9 236 -13z m-673 -634
c223 -64 221 -63 241 -101 18 -37 164 -444 164 -460 0 -16 -144 65 -227 128
-128 96 -246 241 -324 395 -40 79 -43 88 -33 88 3 0 83 -22 179 -50z m723
-117 l72 -6 0 -273 c0 -213 -3 -274 -12 -274 -30 1 -96 40 -136 81 -83 85
-149 204 -217 393 l-36 99 128 -7 c70 -3 161 -9 201 -13z"/>
<path d="M2154 1884 c8 -43 226 -1354 226 -1364 0 -4 6 -10 14 -13 10 -4 56
43 136 136 67 78 125 143 129 145 4 1 77 -117 162 -262 85 -146 157 -265 160
-266 13 0 208 113 205 119 -46 82 -256 447 -273 474 -14 22 -22 41 -20 44 3 2
87 27 188 54 101 28 185 52 187 54 3 3 -1080 882 -1107 899 -10 7 -12 2 -7
-20z"/>
</g>
</svg>
